<svg xmlns="http://www.w3.org/2000/svg" viewBox="0 0 512 512">
  <rect width="512" height="512" rx="96" fill="#A67C52"/>
  <rect x="112" y="100" width="288" height="312" rx="18" fill="#FDF6E3"/>
  <rect x="148" y="152" width="216" height="18" rx="9" fill="#A67C52"/>
  <rect x="148" y="194" width="216" height="14" rx="7" fill="#C4A98A"/>
  <rect x="148" y="226" width="180" height="14" rx="7" fill="#C4A98A"/>
  <rect x="148" y="272" width="216" height="14" rx="7" fill="#C4A98A"/>
  <rect x="148" y="304" width="160" height="14" rx="7" fill="#C4A98A"/>
  <rect x="148" y="336" width="200" height="14" rx="7" fill="#C4A98A"/>
  <!-- 헤드폰 아이콘 (TTS 상징) -->
  <circle cx="370" cy="370" r="72" fill="#A67C52"/>
  <path d="M340 360 Q340 336 370 336 Q400 336 400 360" stroke="#FDF6E3" stroke-width="10" fill="none" stroke-linecap="round"/>
  <rect x="330" y="358" width="16" height="26" rx="8" fill="#FDF6E3"/>
  <rect x="386" y="358" width="16" height="26" rx="8" fill="#FDF6E3"/>
</svg>
